<svg id="Layer_1" data-name="Layer 1" 
    xmlns="http://www.w3.org/2000/svg" viewBox="0 0 251.04 134.08">
    <defs>
        <style>.cls-1{fill:#b8b8b9;}</style>
    </defs>
    <title>abc group</title>
    <path class="cls-1" d="M394.6,262.5a41.7,41.7,0,0,1,25.8,8.89c3,2.56,6,4.92,8.43,7.78l24.82,29.55c4,4.79,9.53,12.28,14.69,15.59a23.64,23.64,0,1,0-4-36.62,23.82,23.82,0,0,0-3,3.67c-6.88-8.39-14.2-16.84-21.1-25.15V226l17.49-12.17v53.74a43.56,43.56,0,0,1,54.13,6c4.44,4.44,8.07,10.06,12,15l16.38,20.74c5.31,6.72,10.1,13.9,18.16,17.61,8.64,4,18.66,3.19,27.05-4.66a25.3,25.3,0,0,0,6.22-10.22l12.06,13.48a42.15,42.15,0,0,1-6.55,8.48c-20.16,20.16-47.71,13-65.36-6.58l-9.13-10.15A43.62,43.62,0,0,1,481.08,348c-14.73,0-25.6-6.83-34.27-18.07l-32.67-41.56a25.29,25.29,0,1,0-2.64,34.89L422.05,336A41.9,41.9,0,1,1,394.6,262.5m173,0a41.77,41.77,0,0,1,29.63,12.27c.51.51,1,1,1.49,1.57L586.74,287.9q-.62-.72-1.29-1.39a25.31,25.31,0,0,0-38.75,3.58l-10.78-13.15q1-1.12,2-2.17a41.76,41.76,0,0,1,29.62-12.27" transform="translate(-352.7 -213.87)"/>
</svg>