<svg id="Layer_1" data-name="Layer 1" xmlns="http://www.w3.org/2000/svg" viewBox="0 0 216 200"><defs><style>.cls-1{fill:#494949;}</style></defs><title>becken</title><path class="cls-1" d="M70.85,114.65a21.1,21.1,0,0,0,3.86-.38,29.06,29.06,0,0,0,4.09-1.07v5.07a19.54,19.54,0,0,1-3.79,1,28.6,28.6,0,0,1-5.29.48,19.08,19.08,0,0,1-5.25-.71,11.47,11.47,0,0,1-4.34-2.3,11.06,11.06,0,0,1-2.94-4.11,15.33,15.33,0,0,1-1.09-6.12,17.25,17.25,0,0,1,1-6.2,12.72,12.72,0,0,1,2.74-4.41,11.48,11.48,0,0,1,3.94-2.62,12.38,12.38,0,0,1,4.58-.87,13.36,13.36,0,0,1,4.55.75,9.13,9.13,0,0,1,3.6,2.37,11,11,0,0,1,2.36,4.14,19.23,19.23,0,0,1,.85,6c0,.89,0,1.65-.08,2.28H62.6a7.74,7.74,0,0,0,.81,3.07,5.83,5.83,0,0,0,1.76,2.07,7.16,7.16,0,0,0,2.53,1.16A13.09,13.09,0,0,0,70.85,114.65ZM68.29,97.41a5,5,0,0,0-2.14.44,5.14,5.14,0,0,0-1.63,1.21,6.09,6.09,0,0,0-1.09,1.79A9,9,0,0,0,62.9,103H73.13a7.3,7.3,0,0,0-.31-2.17,5.5,5.5,0,0,0-.91-1.79,4.47,4.47,0,0,0-1.51-1.21A4.79,4.79,0,0,0,68.29,97.41Z"/><path class="cls-1" d="M104.39,118.54a16,16,0,0,1-3,.88,18.06,18.06,0,0,1-3.67.36,16.67,16.67,0,0,1-5.27-.81,11.82,11.82,0,0,1-4.27-2.44,11.34,11.34,0,0,1-2.87-4.15,15.12,15.12,0,0,1-1-5.87,15.55,15.55,0,0,1,1.21-6.44,12.6,12.6,0,0,1,3.13-4.37A12.43,12.43,0,0,1,93,93.23a15,15,0,0,1,4.74-.79,17.42,17.42,0,0,1,3.36.31,15,15,0,0,1,2.93.85v5.18a14.46,14.46,0,0,0-2.51-.82,12.41,12.41,0,0,0-2.86-.31,9.18,9.18,0,0,0-2.93.47,6.52,6.52,0,0,0-2.47,1.49,7,7,0,0,0-1.71,2.7,11.54,11.54,0,0,0-.63,4,10.67,10.67,0,0,0,.48,3.24,7.6,7.6,0,0,0,1.41,2.59,6.8,6.8,0,0,0,2.37,1.73,8,8,0,0,0,3.39.66,13.43,13.43,0,0,0,3.17-.35,19.25,19.25,0,0,0,2.69-.86Z"/><path class="cls-1" d="M150.61,114.65a21.29,21.29,0,0,0,3.87-.38,29.29,29.29,0,0,0,4.08-1.07v5.07a19.54,19.54,0,0,1-3.79,1,28.52,28.52,0,0,1-5.29.48,19.18,19.18,0,0,1-5.25-.71,11.47,11.47,0,0,1-4.34-2.3,11.06,11.06,0,0,1-2.94-4.11,15.51,15.51,0,0,1-1.09-6.12,17.25,17.25,0,0,1,1-6.2,12.87,12.87,0,0,1,2.74-4.41,11.48,11.48,0,0,1,3.94-2.62,12.38,12.38,0,0,1,4.58-.87,13.36,13.36,0,0,1,4.55.75,9.06,9.06,0,0,1,3.6,2.37,11,11,0,0,1,2.36,4.14,19.23,19.23,0,0,1,.85,6c0,.89-.05,1.65-.08,2.28H142.36a7.74,7.74,0,0,0,.81,3.07,5.93,5.93,0,0,0,1.76,2.07,7.13,7.13,0,0,0,2.54,1.16A13,13,0,0,0,150.61,114.65Zm-2.55-17.24a5,5,0,0,0-2.15.44,5.14,5.14,0,0,0-1.63,1.21,5.86,5.86,0,0,0-1.08,1.79,8.52,8.52,0,0,0-.54,2.17h10.23a7.3,7.3,0,0,0-.31-2.17,5.31,5.31,0,0,0-.91-1.79,4.53,4.53,0,0,0-1.5-1.21A4.85,4.85,0,0,0,148.06,97.41Z"/><circle class="cls-1" cx="64" cy="88" r="3"/><circle class="cls-1" cx="73" cy="88" r="3"/><path class="cls-1" d="M143,91s4.29-2.14,5-5h5s0,5-5,5h-5"/><path class="cls-1" d="M123,105.3l11.41-12.22h-7.87l-9.91,10.56h-.13V82.29c-2.47.28-6.37,5.14-6.37,5.14v31.68h6.37V107h.11l10.17,12.11h7.71Z"/><path class="cls-1" d="M50.87,99.81a11.67,11.67,0,0,0-2.54-4.16,10.31,10.31,0,0,0-3.66-2.42,11.53,11.53,0,0,0-4.22-.79,10.86,10.86,0,0,0-2.1.19,10.22,10.22,0,0,0-1.85.51,12.29,12.29,0,0,0-1.59.72,15.41,15.41,0,0,0-1.34.84h0c0-.36,0-.87,0-1.52s0-1.37,0-2.14V80.22h0v.07c-2.32.26-5.9,4.56-6.32,5.09V113c0,1,0,2.1,0,3.24s-.06,2.09-.1,2.86h5.26l.62-2.77h.11a9.17,9.17,0,0,0,.95,1,8.79,8.79,0,0,0,1.49,1.13,9,9,0,0,0,2.07.9,9.15,9.15,0,0,0,2.66.36,10.79,10.79,0,0,0,4.16-.85,10.49,10.49,0,0,0,3.72-2.59,13.25,13.25,0,0,0,2.68-4.46,17.58,17.58,0,0,0,1-6.23A16.91,16.91,0,0,0,50.87,99.81Zm-6,9.72a8.47,8.47,0,0,1-1.19,2.76,5.55,5.55,0,0,1-2,1.78,6.16,6.16,0,0,1-4.45.38,8,8,0,0,1-1.49-.65,7.47,7.47,0,0,1-1.23-.86,8.07,8.07,0,0,1-.93-.9V99.58a10.49,10.49,0,0,1,2.63-1.5,7.76,7.76,0,0,1,2.85-.56,6.64,6.64,0,0,1,2.05.32,4.91,4.91,0,0,1,2,1.25,6.59,6.59,0,0,1,1.55,2.68,13.4,13.4,0,0,1,.59,4.21A14.42,14.42,0,0,1,44.82,109.53Z"/><path class="cls-1" d="M188.83,100a8.39,8.39,0,0,0-.36-1.82,8.23,8.23,0,0,0-1.33-2.59,7.55,7.55,0,0,0-1.94-1.77,8.43,8.43,0,0,0-2.43-1,12,12,0,0,0-2.76-.32,11,11,0,0,0-2.1.22l-.25,0a18.59,18.59,0,0,0-6.53,3.21l0-.13-.44-2.69H165.4v26h6.37V101.19a9.25,9.25,0,0,1,3-2.53,7.75,7.75,0,0,1,3.56-.88,4.89,4.89,0,0,1,2.38.54,3.3,3.3,0,0,1,1.46,1.77,5.36,5.36,0,0,1,.29,1.32,15.4,15.4,0,0,1,.09,1.8v15.9h6.36V102.22A21.65,21.65,0,0,0,188.83,100Z"/></svg>