<svg id="Layer_1" data-name="Layer 1" xmlns="http://www.w3.org/2000/svg" viewBox="0 0 216 200"><defs><style>.cls-1{font-size:37px;font-family:RobotoCondensed-Regular, Roboto Condensed;letter-spacing:-0.04em;}.cls-1,.cls-4,.cls-5{fill:#494949;}.cls-2{letter-spacing:-0.06em;}.cls-3{letter-spacing:-0.04em;}.cls-5{font-size:12px;font-family:RobotoCondensed-Italic, Roboto Condensed;font-style:italic;letter-spacing:-0.04em;}.cls-6,.cls-7,.cls-8,.cls-9{font-family:RobotoCondensed-BoldItalic, Roboto Condensed;font-weight:700;}.cls-6{letter-spacing:-0.04em;}.cls-7{letter-spacing:-0.07em;}.cls-8{letter-spacing:-0.06em;}</style></defs><title>ecoceramics</title><text class="cls-1" transform="translate(20.01 104.7)">ecoce<tspan class="cls-2" x="79.27" y="0">r</tspan><tspan class="cls-3" x="88.17" y="0">amic</tspan></text><path class="cls-4" d="M186,80.61a2,2,0,0,0-1.73.8,4.78,4.78,0,0,0-.63,2.48h4.51v-.25a4.29,4.29,0,0,0-.59-2.33A1.79,1.79,0,0,0,186,80.61Z"/><path class="cls-4" d="M186,75.13a10,10,0,1,0,10,10A10,10,0,0,0,186,75.13Zm4,10.37h-6.4v.27a4.22,4.22,0,0,0,.69,2.68,2.47,2.47,0,0,0,2,.83,3.23,3.23,0,0,0,1.46-.31,3.69,3.69,0,0,0,1.18-1l1,1.19a4.26,4.26,0,0,1-3.72,1.71,4.18,4.18,0,0,1-3.28-1.27,5.57,5.57,0,0,1-1.17-3.75V84.47a6.49,6.49,0,0,1,1.12-4A3.72,3.72,0,0,1,186,79a3.56,3.56,0,0,1,3,1.28,6.63,6.63,0,0,1,1,4Z"/><text class="cls-5" transform="translate(66.27 123.7)">Tiles for <tspan class="cls-6" x="35.85" y="0">EVE</tspan><tspan class="cls-7" x="52.59" y="0">R</tspan><tspan class="cls-8" x="58.29" y="0">Y</tspan><tspan class="cls-9" x="63.96" y="0">ONE</tspan></text></svg>