<svg id="Layer_1" data-name="Layer 1" xmlns="http://www.w3.org/2000/svg" viewBox="0 0 216 200"><defs><style>.cls-1,.cls-2{fill:#494949;}.cls-2{font-size:10px;font-family:Opificio-Bold, Opificio;font-weight:700;letter-spacing:0.17em;}.cls-3{letter-spacing:0.16em;}.cls-4{letter-spacing:0.15em;}.cls-5{letter-spacing:0.14em;}.cls-6{letter-spacing:0.16em;}.cls-7{letter-spacing:0.14em;}.cls-8{letter-spacing:0.16em;}.cls-9{letter-spacing:0.15em;}.cls-10{letter-spacing:0.13em;}.cls-11{letter-spacing:0.14em;}.cls-12{letter-spacing:0.15em;}.cls-13{letter-spacing:0.11em;}</style></defs><title>genwec</title><path class="cls-1" d="M86,90.29l-2.76-7.37h-.3l1,7.25v20.76H76.71V68.64h5.82L94.59,89.75,97.17,97h.36l-1-7.14V68.94h7.13v42.29H97.89Z"/><path class="cls-1" d="M120.06,92l.6,7.56h.24l.66-7.68,5.64-23h5.28L137.94,92l.66,7.56h.23l.66-7.68,3.72-23h7.68l-9.42,42.29h-5.33l-5.88-23.15-.78-6.54h-.3l-.72,6.59-5.88,23.1H117l-9.36-42.29H116Z"/><path class="cls-1" d="M154.83,68.94h21v7H162.39V86.21h12.18v7H162.39V104h13.68v7H154.83Z"/><path class="cls-1" d="M203.13,109.25a9.73,9.73,0,0,1-4.17,1.92,23.1,23.1,0,0,1-5.19.6,16.07,16.07,0,0,1-6-1.11,12,12,0,0,1-4.89-3.69,18.82,18.82,0,0,1-3.3-6.78,38.08,38.08,0,0,1-1.2-10.32,35,35,0,0,1,1.35-10.55,18.67,18.67,0,0,1,3.54-6.69,12.08,12.08,0,0,1,5-3.51,16.55,16.55,0,0,1,5.69-1,24.19,24.19,0,0,1,5.13.48,19.76,19.76,0,0,1,3.57,1.08l-1.5,6.66a10.45,10.45,0,0,0-2.67-.93,17.42,17.42,0,0,0-3.63-.33,7,7,0,0,0-6.35,3.6q-2.22,3.6-2.22,11.27a32.07,32.07,0,0,0,.51,6,14.84,14.84,0,0,0,1.62,4.71,8.25,8.25,0,0,0,2.81,3.06,7.54,7.54,0,0,0,4.11,1.08,10.15,10.15,0,0,0,3.6-.57,14.18,14.18,0,0,0,2.7-1.35Z"/><path class="cls-1" d="M22.81,93.67l6.9.94v8.68a5.38,5.38,0,0,1-1.95,1.16,7.44,7.44,0,0,1-2.31.36,7,7,0,0,1-6.09-3.6Q17.05,97.61,17.05,90a31.86,31.86,0,0,1,.63-6.8,14.11,14.11,0,0,1,1.8-4.65,7.24,7.24,0,0,1,2.88-2.64,8.52,8.52,0,0,1,3.81-.84h.26v-.31h44V68.08c-1.58-.34-43.29,0-45.21,0a16.33,16.33,0,0,0-6.15,1.17A12.9,12.9,0,0,0,14,73.05a19.69,19.69,0,0,0-3.51,6.75A33.65,33.65,0,0,0,9.13,89.93a38.25,38.25,0,0,0,1.11,9.87,19.72,19.72,0,0,0,3.12,6.78,12.17,12.17,0,0,0,4.89,3.93,15.85,15.85,0,0,0,6.42,1.26,19.58,19.58,0,0,0,5.9-.93,13.18,13.18,0,0,0,5.19-3V89.21H22.81Z"/><rect class="cls-1" x="41.1" y="84.08" width="29.33" height="9.33"/><rect class="cls-1" x="41.1" y="101.41" width="29.33" height="9.33"/><text class="cls-2" transform="translate(15.13 129.16)">WA<tspan class="cls-3" x="16.35" y="0">SHR</tspan><tspan class="cls-4" x="39.1" y="0">O</tspan><tspan class="cls-5" x="48.8" y="0">O</tspan><tspan class="cls-6" x="58.45" y="0">M E</tspan><tspan class="cls-7" x="79.69" y="0">Q</tspan><tspan class="cls-8" x="89.29" y="0">U</tspan><tspan class="cls-9" x="97.35" y="0">I</tspan><tspan class="cls-10" x="101.66" y="0">P</tspan><tspan class="cls-11" x="108.76" y="0">M</tspan><tspan class="cls-12" x="117.79" y="0">E</tspan><tspan class="cls-3" x="125.29" y="0">NT &amp;C</tspan><tspan class="cls-5" x="162.15" y="0">O</tspan><tspan class="cls-7" x="171.8" y="0">M</tspan><tspan class="cls-13" x="180.78" y="0">P</tspan><tspan class="cls-3" x="187.68" y="0">.</tspan></text></svg>