<svg id="Layer_1" data-name="Layer 1" xmlns="http://www.w3.org/2000/svg" viewBox="0 0 216 200"><defs><style>.cls-1,.cls-2{fill:#494949;}.cls-2{font-size:20px;font-family:CodecCold-BoldItalic, Codec Cold;font-weight:700;font-style:italic;letter-spacing:-0.06em;}</style></defs><title>jaquar</title><path class="cls-1" d="M43.78,76.91l-4.42,25A13.4,13.4,0,0,1,38,106a10.06,10.06,0,0,1-2.37,2.92,9.93,9.93,0,0,1-3.17,1.75,12,12,0,0,1-3.79.58H26.07l.88-5.08h2.34A3.54,3.54,0,0,0,32,105a6.08,6.08,0,0,0,1.4-3.17l4.4-24.93Z"/><path class="cls-1" d="M119.65,97.56a9.06,9.06,0,0,0,2.82-.42,6.05,6.05,0,0,0,2.29-1.32,7.74,7.74,0,0,0,1.69-2.34A13.6,13.6,0,0,0,127.51,90l2.31-13.11h5.93l-2.33,13.28a17.71,17.71,0,0,1-1.92,5.69,13.23,13.23,0,0,1-3.25,3.88,12.53,12.53,0,0,1-4.33,2.22,18.4,18.4,0,0,1-5.17.71,15.81,15.81,0,0,1-4.91-.71,7.71,7.71,0,0,1-5.44-6.1,15.23,15.23,0,0,1,.09-5.69l2.36-13.28h5.93L114.45,90a11.35,11.35,0,0,0-.19,3.44,4.84,4.84,0,0,0,.87,2.33A3.87,3.87,0,0,0,117,97.13,7.8,7.8,0,0,0,119.65,97.56Z"/><path class="cls-1" d="M73.24,88.39V86.86a4.48,4.48,0,0,1-.07-.64,23.1,23.1,0,0,0-3.53-6.33L68.7,79a9.82,9.82,0,0,0-.91-.75,9.49,9.49,0,0,0-1.85-1.06,12.18,12.18,0,0,0-2.21-.72,11.74,11.74,0,0,0-2.58-.27,16,16,0,0,0-6.29,1.24,16.22,16.22,0,0,0-5,3.35,15.27,15.27,0,0,0-3.33,4.89,14.48,14.48,0,0,0-1.21,5.87,12.16,12.16,0,0,0,.79,4.38,10.28,10.28,0,0,0,5.85,6,12.55,12.55,0,0,0,4.74.86,13.47,13.47,0,0,0,2.56-.24,15.85,15.85,0,0,0,2.37-.66l.32-.13.66-5.22a9.9,9.9,0,0,1-.93.44,9.51,9.51,0,0,1-3.61.7,7.33,7.33,0,0,1-2.73-.5,6.19,6.19,0,0,1-2.13-1.41,6.55,6.55,0,0,1-1.38-2.16,7.57,7.57,0,0,1-.5-2.79A8.91,8.91,0,0,1,52.09,87a9.51,9.51,0,0,1,2.12-3,10.06,10.06,0,0,1,3-2,9.32,9.32,0,0,1,3.62-.72,7.33,7.33,0,0,1,2.73.5,6.24,6.24,0,0,1,3.54,3.58,7.41,7.41,0,0,1,.49,2.76,9.12,9.12,0,0,1-.32,2.42h0l-1.8,9.85-.2,1.54h5.6l2.33-13.28A2.45,2.45,0,0,1,73.24,88.39Z"/><path class="cls-1" d="M157.35,77.59c-.28-.16-.58-.31-.89-.45a12.28,12.28,0,0,0-2.22-.72,11.61,11.61,0,0,0-2.58-.27,15.92,15.92,0,0,0-6.28,1.24,16.15,16.15,0,0,0-5,3.35A15.27,15.27,0,0,0,137,85.63a14.65,14.65,0,0,0-1.21,5.87,12,12,0,0,0,.8,4.38,10.3,10.3,0,0,0,5.84,6,12.64,12.64,0,0,0,4.75.86,13.44,13.44,0,0,0,2.55-.24,15.85,15.85,0,0,0,2.37-.66c.33-.12.65-.26,1-.39l.67-5.34a10.84,10.84,0,0,1-1.59.82,9.51,9.51,0,0,1-3.61.7,7.24,7.24,0,0,1-2.72-.5,6,6,0,0,1-2.13-1.41,6.57,6.57,0,0,1-1.39-2.16,7.57,7.57,0,0,1-.5-2.79A9.06,9.06,0,0,1,142.6,87a9.51,9.51,0,0,1,2.12-3,10.06,10.06,0,0,1,3.05-2,9.33,9.33,0,0,1,3.63-.72,7.31,7.31,0,0,1,2.72.5,6.24,6.24,0,0,1,3.54,3.58,7.41,7.41,0,0,1,.5,2.76c0,.26,0,.52,0,.77h.25l-1.73,10.22-.49,2.83h5.29l2.2-12.52C164.62,82.12,157.67,77.78,157.35,77.59Z"/><path class="cls-1" d="M186.67,76.91h-2.73a12.59,12.59,0,0,0-7.68,2.48v0a30.87,30.87,0,0,0-5,4.58c-.23.5-.49,1-.74,1.48l-1.32,3.74-1.94,8.21-.8,4.57h5.91l2.09-12a11.55,11.55,0,0,1,1.13-3.39,8.56,8.56,0,0,1,1.95-2.46,8,8,0,0,1,2.64-1.48,9.66,9.66,0,0,1,2.25-.46h0Z"/><path class="cls-1" d="M100.32,79.89v0a12.23,12.23,0,0,0-1.44-1.44,10.22,10.22,0,0,0-1.8-1.23,9.23,9.23,0,0,0-2.17-.84,9.72,9.72,0,0,0-2.52-.31,15.85,15.85,0,0,0-6.25,1.24,16,16,0,0,0-5,3.36,15.66,15.66,0,0,0-3.34,4.91,14.55,14.55,0,0,0-1.22,5.91,12.06,12.06,0,0,0,.77,4.37,10.17,10.17,0,0,0,5.77,5.94,12.41,12.41,0,0,0,4.72.86,13.79,13.79,0,0,0,4.89-.84l.21-.08.66-5.25c-.23.11-.45.22-.69.32a9.34,9.34,0,0,1-3.61.72,7.24,7.24,0,0,1-2.72-.5,6.12,6.12,0,0,1-2.13-1.4A6.3,6.3,0,0,1,83,93.49a7.71,7.71,0,0,1-.48-2.77,8.84,8.84,0,0,1,.8-3.78,9.7,9.7,0,0,1,2.14-3,9.89,9.89,0,0,1,3.08-2,9.44,9.44,0,0,1,3.58-.71,7.23,7.23,0,0,1,2.72.49,6.33,6.33,0,0,1,3.5,3.58,7.53,7.53,0,0,1,.5,2.79,9,9,0,0,1-.28,2.23h0l-2.07,10.08-2.9,18.47,6.42-7.27L100,112h0l4.09-20.83A15.66,15.66,0,0,0,100.32,79.89Z"/><text class="cls-2" transform="translate(103.92 118.46)">LIGHTING</text></svg>