<svg id="Layer_1" data-name="Layer 1" xmlns="http://www.w3.org/2000/svg" viewBox="0 0 216 200"><defs><style>.cls-1,.cls-2{fill:#494949;}.cls-2{font-size:27px;font-family:Pecita;}</style></defs><title>navarti</title><path class="cls-1" d="M39,101.28H32L18.27,78.8v22.48h-7V67.12h7L32,89.64V67.12h7Z"/><path class="cls-1" d="M88.72,92.81l7.74-25.69h7.83L92.4,101.28H85.06L73.21,67.12H81Z"/><path class="cls-1" d="M50,101.28H42.21L54.06,67.12H61.4l11.89,34.16H65.46L57.72,75.59Z"/><path class="cls-1" d="M112,101.28h-7.81l11.85-34.16h7.34l11.89,34.16h-7.83l-7.74-25.69Z"/><path class="cls-1" d="M150.72,88.77h-5.61v12.51h-7V67.12h12.69c4,0,7.15.9,9.33,2.7a9.31,9.31,0,0,1,3.29,7.62,10.49,10.49,0,0,1-1.51,5.83A10.29,10.29,0,0,1,157.29,87l7.39,14v.33h-7.55Zm-5.61-5.7h5.68a5.82,5.82,0,0,0,4.11-1.35A4.78,4.78,0,0,0,156.35,78a5.16,5.16,0,0,0-1.37-3.8,5.68,5.68,0,0,0-4.21-1.39h-5.66Z"/><path class="cls-1" d="M193.28,72.82H182.81v28.46h-7V72.82H165.45v-5.7h27.83Z"/><path class="cls-1" d="M204.77,101.28h-7V67.12h7Z"/><text class="cls-2" transform="translate(52.88 123.7)">ceremica</text></svg>